<mxfile host="app.diagrams.net" modified="2024-02-15T14:27:19.320Z" agent="Mozilla/5.0 (Windows NT 10.0; Win64; x64) AppleWebKit/537.36 (KHTML, like Gecko) Chrome/121.0.0.0 Safari/537.36" version="23.1.4" etag="OJiJTWG5xxii0zJU3Ce8" type="github">
  <diagram name="Page-1" id="K5GByKsmCRTc2dC-XO-T">
    <mxGraphModel>
      <root>
        <mxCell id="0" />
        <mxCell id="1" parent="0" />
      </root>
    </mxGraphModel>
  </diagram>
</mxfile>
